<?xml version="1.0" standalone="no"?>
<!DOCTYPE svg PUBLIC "-//W3C//DTD SVG 20010904//EN"
 "http://www.w3.org/TR/2001/REC-SVG-20010904/DTD/svg10.dtd">
<svg version="1.0" xmlns="http://www.w3.org/2000/svg"
 width="591.000000pt" height="591.000000pt" viewBox="0 0 591.000000 591.000000"
 preserveAspectRatio="xMidYMid meet">
<metadata>
Created by potrace 1.14, written by Peter Selinger 2001-2017
</metadata>
<g transform="translate(0.000000,591.000000) scale(0.100000,-0.100000)"
fill="#000000" stroke="none">
<path d="M94 5832 c-16 -2 -21 -11 -22 -37 -1 -19 2 -35 6 -36 4 0 41 -2 82
-3 90 -3 132 -12 185 -38 63 -32 102 -81 113 -141 6 -31 9 -502 8 -1177 l-1
-1125 -22 -45 c-50 -105 -127 -136 -344 -140 -24 0 -26 -4 -25 -37 l1 -38 517
0 518 0 -5 -100 c-7 -129 -11 -166 -19 -193 -7 -22 -8 -22 -37 -5 -16 10 -53
44 -82 77 -29 33 -60 68 -70 80 -24 28 -69 56 -87 56 -24 -1 -49 -25 -53 -51
-2 -13 2 -44 9 -69 71 -252 73 -267 34 -262 -14 2 -54 21 -90 42 -117 71 -207
112 -237 108 -24 -2 -28 -8 -31 -36 -3 -31 41 -135 73 -172 19 -23 75 -137 75
-155 0 -22 -44 -19 -146 11 -200 60 -207 61 -221 21 -4 -12 -7 -26 -8 -32 -3
-27 35 -77 108 -140 70 -61 117 -115 117 -137 0 -14 -77 -28 -180 -34 -241
-14 -258 -54 -65 -156 130 -69 150 -86 141 -121 -7 -30 -34 -40 -165 -67 -115
-23 -141 -39 -141 -83 1 -60 25 -73 181 -101 120 -22 157 -59 106 -106 -12
-12 -66 -44 -120 -72 -189 -97 -175 -152 44 -157 123 -3 199 -18 199 -39 0
-15 -62 -87 -105 -123 -104 -86 -133 -134 -113 -177 18 -37 52 -39 146 -8 89
29 180 52 202 51 26 -1 13 -54 -31 -129 -112 -189 -125 -243 -59 -253 22 -3
108 36 181 84 89 57 148 80 159 63 11 -18 2 -70 -31 -175 -41 -130 -43 -160
-14 -184 41 -31 67 -16 171 95 54 57 104 106 112 109 28 11 36 -21 47 -200 6
-101 11 -122 30 -151 34 -52 79 -14 164 139 35 64 72 124 82 133 16 15 19 14
34 -15 8 -17 29 -89 45 -161 32 -143 45 -170 76 -170 37 0 73 62 107 187 32
114 53 163 70 163 8 0 34 -36 58 -81 108 -198 148 -241 188 -204 25 22 38 90
45 225 5 105 11 140 26 140 8 0 51 -42 145 -140 49 -52 104 -90 129 -90 12 0
46 45 46 61 0 9 -12 57 -26 105 -41 138 -55 214 -39 221 17 6 92 -27 149 -66
85 -58 174 -88 208 -70 27 14 17 54 -37 149 -58 103 -97 190 -91 205 7 18 53
10 192 -31 133 -40 170 -40 180 0 9 36 -16 74 -98 152 -40 38 -86 85 -101 105
-25 34 -26 38 -12 53 18 18 21 18 185 21 135 3 186 20 174 58 -11 37 -31 53
-134 107 -54 28 -108 62 -120 75 -48 52 1 85 167 111 99 16 143 55 123 109
-13 33 -49 49 -154 69 -94 17 -149 41 -154 69 -5 24 39 61 116 98 223 107 213
163 -33 173 -105 5 -152 12 -172 29 -20 15 12 60 104 144 73 66 113 120 113
152 0 6 -9 20 -19 30 -23 23 -37 22 -167 -20 -121 -39 -194 -48 -194 -26 0 9
34 84 76 166 46 90 74 156 71 165 -17 42 -90 28 -200 -38 -83 -50 -122 -71
-156 -81 -24 -7 -24 -7 -18 51 3 33 17 95 32 139 38 118 41 149 16 174 -42 42
-77 22 -202 -111 -77 -83 -101 -100 -113 -79 -4 5 -8 49 -11 98 -13 216 -25
263 -68 263 -34 0 -74 -48 -132 -158 -60 -113 -89 -151 -105 -136 -7 7 -30 72
-52 145 -57 192 -86 232 -134 184 -22 -22 -30 -24 -91 -20 -107 6 -151 22
-206 74 -40 36 -54 67 -62 136 -10 79 -10 2152 -1 2230 21 159 113 221 328
218 92 -1 159 -25 202 -74 36 -39 103 -170 169 -330 41 -99 303 -749 431
-1069 48 -118 91 -224 96 -235 5 -11 41 -101 80 -200 39 -99 78 -193 85 -210
7 -16 70 -174 140 -350 70 -176 134 -325 141 -331 8 -6 14 -16 14 -23 0 -7 23
-11 64 -11 152 0 249 -40 290 -118 33 -63 35 -138 35 -1217 1 -1152 0 -1156
-48 -1224 -48 -67 -132 -96 -288 -100 l-53 -1 0 -39 0 -39 720 1 720 0 0 38
c0 38 -1 39 -37 40 -218 4 -319 58 -341 183 -5 28 -10 270 -11 537 l-2 485 90
0 c66 -1 94 -5 105 -16 8 -8 194 -269 413 -580 220 -311 419 -593 444 -626
l44 -62 442 0 443 0 0 38 0 37 -57 12 c-74 15 -148 60 -198 123 -22 27 -46 56
-52 63 -7 7 -116 159 -243 337 -126 178 -236 332 -244 343 -8 11 -53 74 -100
140 -46 66 -103 146 -126 178 -23 32 -41 59 -39 60 2 2 38 13 79 26 257 80
427 231 504 451 26 74 30 101 33 210 2 101 -1 141 -18 205 -33 128 -90 226
-189 326 -163 165 -321 224 -680 255 -41 3 -76 7 -77 8 -2 1 132 360 147 391
11 24 113 292 150 395 15 41 114 302 220 580 105 278 227 597 270 710 125 331
207 528 240 574 35 51 85 85 150 102 43 11 45 13 47 48 1 34 -1 36 -30 37 -36
1 -651 0 -682 0 -16 -1 -21 -7 -20 -28 1 -40 9 -49 52 -51 104 -7 176 -40 209
-96 36 -62 15 -229 -45 -361 -7 -16 -179 -467 -292 -768 -133 -354 -205 -535
-211 -529 -8 8 -510 1311 -563 1462 -45 131 -48 176 -11 224 32 42 97 65 194
68 35 1 66 7 70 13 8 12 10 65 2 66 -7 0 -1298 0 -1333 0 -26 -1 -28 -3 -25
-38 3 -36 5 -38 38 -39 210 -9 267 -79 455 -556 l85 -217 -31 -78 c-17 -43
-39 -97 -50 -120 -10 -23 -19 -46 -19 -51 0 -5 -6 -22 -14 -38 -8 -16 -60
-139 -116 -274 -55 -135 -123 -298 -150 -362 -28 -65 -50 -122 -50 -128 0 -5
-4 -10 -8 -10 -9 0 -20 23 -90 200 -83 210 -282 704 -292 725 -34 73 -209 519
-237 604 -53 161 -47 228 27 270 33 18 57 24 155 36 15 1 21 11 23 38 2 21 0
37 -5 38 -31 2 -2612 3 -2629 1z m3761 -1557 c97 -253 191 -498 210 -545 111
-287 275 -717 275 -725 0 -6 -259 -9 -711 -7 -560 2 -710 5 -706 15 41 97 152
359 162 382 7 17 57 134 110 260 89 212 121 287 145 340 5 11 58 137 118 280
61 143 131 311 158 373 29 70 50 108 55 100 4 -7 87 -220 184 -473z m-2390
-1285 c-4 -14 -9 -34 -11 -45 -2 -11 -6 -33 -10 -50 -10 -52 -36 -115 -48
-115 -6 0 -20 12 -30 27 -16 22 -116 200 -116 206 0 1 50 2 111 2 l110 0 -6
-25z m2850 -159 c230 -46 377 -190 411 -401 3 -19 9 -54 14 -78 12 -68 4 -260
-14 -336 -42 -177 -156 -309 -306 -355 -102 -32 -177 -41 -382 -45 l-148 -4 0
620 0 619 188 -5 c103 -2 210 -9 237 -15z m-2599 -235 c147 -23 374 -117 447
-184 54 -51 32 -100 -112 -243 -96 -95 -143 -134 -153 -124 -2 3 -1 32 4 66
13 81 7 94 -29 75 -16 -8 -43 -29 -62 -46 -54 -48 -61 -42 -61 55 0 47 -3 85
-7 85 -5 0 -33 -34 -62 -75 -30 -41 -58 -75 -62 -75 -4 0 -10 12 -14 28 -4 15
-9 34 -11 42 -2 8 -10 39 -16 68 -7 28 -15 52 -18 52 -3 0 -12 -17 -19 -37 -8
-21 -26 -64 -41 -97 l-26 -60 -54 77 c-29 42 -55 75 -58 73 -2 -3 -5 -38 -7
-78 -2 -40 -3 -76 -4 -80 -2 -17 -25 -6 -80 37 -31 25 -63 45 -69 45 -14 0
-15 -46 -2 -110 5 -25 5 -48 1 -52 -3 -4 -33 6 -66 22 -96 48 -105 41 -64 -45
16 -33 29 -65 29 -72 0 -18 -30 -20 -98 -5 -35 8 -66 12 -69 8 -3 -3 15 -30
41 -60 25 -30 46 -60 46 -66 0 -33 -241 23 -352 82 -50 27 -58 35 -58 60 0 67
125 253 247 369 163 154 370 248 598 272 39 4 221 -1 261 -7z m709 -481 c60
-101 121 -282 141 -415 39 -271 -86 -606 -315 -840 -82 -83 -174 -148 -286
-200 -38 -18 -73 -34 -77 -36 -4 -3 -12 4 -18 16 -14 26 -121 431 -118 442 2
5 17 -3 33 -17 65 -58 95 -77 110 -71 16 6 16 35 -1 118 -3 14 0 29 5 33 6 3
41 -8 77 -25 42 -19 71 -27 77 -21 5 5 -3 33 -22 72 -16 34 -28 66 -24 72 5 8
72 4 137 -9 35 -7 38 8 8 40 -17 17 -42 49 -56 70 -35 52 -23 67 40 54 105
-23 131 28 37 71 -51 23 -74 54 -56 71 4 5 31 12 58 15 53 7 75 19 75 40 0 16
-23 26 -75 32 -45 5 -70 24 -62 46 3 9 29 26 57 39 27 13 53 32 56 42 8 24
-19 46 -49 40 -83 -16 -90 -16 -97 -3 -8 12 15 51 76 127 l27 33 -91 -7 c-52
-4 -92 -3 -92 2 1 16 29 48 172 191 l142 142 37 -52 c21 -28 54 -79 74 -112z
m-759 -65 c68 -16 144 -65 144 -95 0 -32 -71 -109 -144 -157 -82 -53 -171 -79
-276 -80 -112 -1 -251 34 -263 66 -7 19 52 110 100 152 36 32 149 93 186 100
12 2 36 8 52 12 46 13 146 14 201 2z m326 -320 c68 -193 -14 -414 -202 -545
-35 -24 -43 -26 -54 -14 -16 17 -42 91 -51 144 -4 22 -9 51 -12 65 -2 14 -5
59 -6 100 -1 62 4 85 26 133 33 73 48 92 150 195 l82 83 24 -53 c13 -29 32
-78 43 -108z m-1297 30 c166 -40 295 -86 295 -106 0 -13 -11 -17 -81 -29 -21
-3 -43 -13 -50 -21 -11 -14 -10 -18 6 -30 10 -8 28 -14 39 -15 58 -2 86 -14
86 -38 0 -19 -38 -51 -62 -51 -7 -1 -24 -10 -37 -21 -20 -16 -23 -24 -14 -37
9 -14 24 -16 82 -14 56 2 71 0 71 -11 0 -13 -56 -93 -87 -125 -18 -19 -16 -34
5 -29 29 8 67 16 106 22 49 8 54 -10 22 -74 -14 -28 -26 -60 -26 -71 0 -25 16
-22 92 16 61 31 70 30 63 -3 -13 -61 -17 -131 -8 -136 10 -6 37 11 107 67 20
16 39 26 42 23 4 -3 7 -45 8 -92 0 -47 3 -85 6 -85 3 1 32 37 65 81 l60 81 22
-74 c11 -40 24 -86 28 -103 7 -30 7 -30 31 25 14 30 29 67 35 83 21 52 36 33
72 -88 34 -116 54 -198 62 -257 7 -46 6 -48 -21 -59 -42 -17 -228 -23 -309
-10 -415 64 -778 418 -859 838 -16 83 -18 327 -2 352 9 15 65 11 151 -9z m524
-140 c106 -32 160 -64 236 -137 89 -84 102 -109 126 -227 27 -129 28 -128 -81
-129 -120 -1 -282 103 -357 231 -31 52 -72 170 -74 215 -3 48 9 77 33 77 11 0
64 -13 117 -30z m370 -4 c12 -25 11 -31 -7 -55 -20 -26 -50 -30 -64 -8 -22 34
7 101 41 95 9 -2 22 -16 30 -32z"/>
</g>
</svg>
